<mxfile host="app.diagrams.net" agent="Mozilla/5.0 (Windows NT 10.0; Win64; x64) AppleWebKit/537.36 (KHTML, like Gecko) Chrome/130.0.0.0 Safari/537.36" version="24.8.4">
  <diagram name="PÃ¡gina-1" id="yATzcWv3nnaXQhiIVlO6">
    <mxGraphModel grid="1" page="1" gridSize="10" guides="1" tooltips="1" connect="1" arrows="1" fold="1" pageScale="1" pageWidth="827" pageHeight="1169" math="0" shadow="0">
      <root>
        <mxCell id="0" />
        <mxCell id="1" parent="0" />
        <mxCell id="wX4P6Ir2SmbjYn-z66RY-2" value="Products" style="rounded=1;arcSize=10;whiteSpace=wrap;html=1;align=center;" vertex="1" parent="1">
          <mxGeometry x="1070" y="490" width="100" height="40" as="geometry" />
        </mxCell>
        <mxCell id="wX4P6Ir2SmbjYn-z66RY-3" value="Discounts" style="rounded=1;arcSize=10;whiteSpace=wrap;html=1;align=center;" vertex="1" parent="1">
          <mxGeometry x="1360" y="650" width="100" height="40" as="geometry" />
        </mxCell>
        <mxCell id="wX4P6Ir2SmbjYn-z66RY-6" value="Atributes" style="rounded=1;arcSize=10;whiteSpace=wrap;html=1;align=center;" vertex="1" parent="1">
          <mxGeometry x="210" y="620" width="100" height="40" as="geometry" />
        </mxCell>
        <mxCell id="wX4P6Ir2SmbjYn-z66RY-10" value="Categories" style="rounded=1;arcSize=10;whiteSpace=wrap;html=1;align=center;" vertex="1" parent="1">
          <mxGeometry x="840" y="730" width="100" height="40" as="geometry" />
        </mxCell>
        <mxCell id="wX4P6Ir2SmbjYn-z66RY-13" value="id_rol" style="ellipse;whiteSpace=wrap;html=1;align=center;" vertex="1" parent="1">
          <mxGeometry x="455" y="145" width="100" height="40" as="geometry" />
        </mxCell>
        <mxCell id="wX4P6Ir2SmbjYn-z66RY-14" value="email" style="ellipse;whiteSpace=wrap;html=1;align=center;" vertex="1" parent="1">
          <mxGeometry x="635" y="85" width="100" height="40" as="geometry" />
        </mxCell>
        <mxCell id="wX4P6Ir2SmbjYn-z66RY-15" value="password" style="ellipse;whiteSpace=wrap;html=1;align=center;" vertex="1" parent="1">
          <mxGeometry x="685" y="145" width="100" height="40" as="geometry" />
        </mxCell>
        <mxCell id="wX4P6Ir2SmbjYn-z66RY-16" value="Brands" style="rounded=1;arcSize=10;whiteSpace=wrap;html=1;align=center;" vertex="1" parent="1">
          <mxGeometry x="590" y="670" width="100" height="40" as="geometry" />
        </mxCell>
        <mxCell id="wX4P6Ir2SmbjYn-z66RY-17" value="Coupons" style="rounded=1;arcSize=10;whiteSpace=wrap;html=1;align=center;" vertex="1" parent="1">
          <mxGeometry x="1181" y="900" width="100" height="40" as="geometry" />
        </mxCell>
        <mxCell id="wX4P6Ir2SmbjYn-z66RY-18" value="Roles" style="rounded=1;arcSize=10;whiteSpace=wrap;html=1;align=center;" vertex="1" parent="1">
          <mxGeometry x="195" y="305" width="100" height="40" as="geometry" />
        </mxCell>
        <mxCell id="wX4P6Ir2SmbjYn-z66RY-20" value="avatar" style="ellipse;whiteSpace=wrap;html=1;align=center;" vertex="1" parent="1">
          <mxGeometry x="765" y="245" width="100" height="40" as="geometry" />
        </mxCell>
        <mxCell id="wX4P6Ir2SmbjYn-z66RY-21" value="name" style="ellipse;whiteSpace=wrap;html=1;align=center;" vertex="1" parent="1">
          <mxGeometry x="465" y="225" width="100" height="40" as="geometry" />
        </mxCell>
        <mxCell id="wX4P6Ir2SmbjYn-z66RY-22" value="surname" style="ellipse;whiteSpace=wrap;html=1;align=center;" vertex="1" parent="1">
          <mxGeometry x="735" y="195" width="100" height="40" as="geometry" />
        </mxCell>
        <mxCell id="wX4P6Ir2SmbjYn-z66RY-23" value="phone" style="ellipse;whiteSpace=wrap;html=1;align=center;" vertex="1" parent="1">
          <mxGeometry x="555" y="35" width="100" height="40" as="geometry" />
        </mxCell>
        <mxCell id="wX4P6Ir2SmbjYn-z66RY-24" value="id" style="ellipse;whiteSpace=wrap;html=1;align=center;fontStyle=4" vertex="1" parent="1">
          <mxGeometry x="5" y="165" width="100" height="40" as="geometry" />
        </mxCell>
        <mxCell id="wX4P6Ir2SmbjYn-z66RY-25" value="required_permissions" style="ellipse;whiteSpace=wrap;html=1;align=center;" vertex="1" parent="1">
          <mxGeometry x="145" y="85" width="140" height="60" as="geometry" />
        </mxCell>
        <mxCell id="wX4P6Ir2SmbjYn-z66RY-26" value="optional_permissions" style="ellipse;whiteSpace=wrap;html=1;align=center;" vertex="1" parent="1">
          <mxGeometry x="245" y="155" width="140" height="60" as="geometry" />
        </mxCell>
        <mxCell id="wX4P6Ir2SmbjYn-z66RY-27" value="name" style="ellipse;whiteSpace=wrap;html=1;align=center;" vertex="1" parent="1">
          <mxGeometry x="35" y="105" width="100" height="40" as="geometry" />
        </mxCell>
        <mxCell id="wX4P6Ir2SmbjYn-z66RY-28" value="description" style="ellipse;whiteSpace=wrap;html=1;align=center;" vertex="1" parent="1">
          <mxGeometry x="-5" y="225" width="100" height="40" as="geometry" />
        </mxCell>
        <mxCell id="wX4P6Ir2SmbjYn-z66RY-30" value="id" style="ellipse;whiteSpace=wrap;html=1;align=center;fontStyle=4;" vertex="1" parent="1">
          <mxGeometry x="485" y="85" width="100" height="40" as="geometry" />
        </mxCell>
        <mxCell id="7WMYizGvkfpdb4PiuY7d-9" value="" style="endArrow=none;html=1;rounded=0;" edge="1" parent="1" source="wX4P6Ir2SmbjYn-z66RY-28" target="wX4P6Ir2SmbjYn-z66RY-18">
          <mxGeometry relative="1" as="geometry">
            <mxPoint x="595" y="465" as="sourcePoint" />
            <mxPoint x="755" y="465" as="targetPoint" />
          </mxGeometry>
        </mxCell>
        <mxCell id="7WMYizGvkfpdb4PiuY7d-10" value="" style="endArrow=none;html=1;rounded=0;" edge="1" parent="1" source="wX4P6Ir2SmbjYn-z66RY-24" target="wX4P6Ir2SmbjYn-z66RY-18">
          <mxGeometry relative="1" as="geometry">
            <mxPoint x="425" y="295" as="sourcePoint" />
            <mxPoint x="585" y="295" as="targetPoint" />
          </mxGeometry>
        </mxCell>
        <mxCell id="7WMYizGvkfpdb4PiuY7d-11" value="" style="endArrow=none;html=1;rounded=0;" edge="1" parent="1" source="wX4P6Ir2SmbjYn-z66RY-27" target="wX4P6Ir2SmbjYn-z66RY-18">
          <mxGeometry relative="1" as="geometry">
            <mxPoint x="300" y="149" as="sourcePoint" />
            <mxPoint x="404" y="215" as="targetPoint" />
          </mxGeometry>
        </mxCell>
        <mxCell id="7WMYizGvkfpdb4PiuY7d-12" value="" style="endArrow=none;html=1;rounded=0;" edge="1" parent="1" source="wX4P6Ir2SmbjYn-z66RY-25" target="wX4P6Ir2SmbjYn-z66RY-18">
          <mxGeometry relative="1" as="geometry">
            <mxPoint x="408" y="145" as="sourcePoint" />
            <mxPoint x="453" y="216" as="targetPoint" />
          </mxGeometry>
        </mxCell>
        <mxCell id="7WMYizGvkfpdb4PiuY7d-13" value="" style="endArrow=none;html=1;rounded=0;" edge="1" parent="1" source="wX4P6Ir2SmbjYn-z66RY-26" target="wX4P6Ir2SmbjYn-z66RY-18">
          <mxGeometry relative="1" as="geometry">
            <mxPoint x="512" y="164" as="sourcePoint" />
            <mxPoint x="485" y="225" as="targetPoint" />
          </mxGeometry>
        </mxCell>
        <mxCell id="7WMYizGvkfpdb4PiuY7d-15" value="" style="endArrow=none;html=1;rounded=0;" edge="1" parent="1" source="wX4P6Ir2SmbjYn-z66RY-5" target="wX4P6Ir2SmbjYn-z66RY-21">
          <mxGeometry relative="1" as="geometry">
            <mxPoint x="578" y="223" as="sourcePoint" />
            <mxPoint x="485" y="235" as="targetPoint" />
          </mxGeometry>
        </mxCell>
        <mxCell id="7WMYizGvkfpdb4PiuY7d-16" value="have" style="shape=rhombus;perimeter=rhombusPerimeter;whiteSpace=wrap;html=1;align=center;" vertex="1" parent="1">
          <mxGeometry x="385" y="295" width="120" height="60" as="geometry" />
        </mxCell>
        <mxCell id="7WMYizGvkfpdb4PiuY7d-17" value="" style="endArrow=none;html=1;rounded=0;" edge="1" parent="1" source="7WMYizGvkfpdb4PiuY7d-16" target="wX4P6Ir2SmbjYn-z66RY-5">
          <mxGeometry relative="1" as="geometry">
            <mxPoint x="495" y="325" as="sourcePoint" />
            <mxPoint x="585" y="295" as="targetPoint" />
          </mxGeometry>
        </mxCell>
        <mxCell id="7WMYizGvkfpdb4PiuY7d-18" value="" style="endArrow=none;html=1;rounded=0;" edge="1" parent="1" source="wX4P6Ir2SmbjYn-z66RY-18" target="7WMYizGvkfpdb4PiuY7d-16">
          <mxGeometry relative="1" as="geometry">
            <mxPoint x="295" y="335" as="sourcePoint" />
            <mxPoint x="375" y="325" as="targetPoint" />
          </mxGeometry>
        </mxCell>
        <mxCell id="7WMYizGvkfpdb4PiuY7d-19" value="" style="endArrow=none;html=1;rounded=0;" edge="1" parent="1" source="wX4P6Ir2SmbjYn-z66RY-5" target="wX4P6Ir2SmbjYn-z66RY-13">
          <mxGeometry relative="1" as="geometry">
            <mxPoint x="615" y="335" as="sourcePoint" />
            <mxPoint x="560" y="269" as="targetPoint" />
          </mxGeometry>
        </mxCell>
        <mxCell id="7WMYizGvkfpdb4PiuY7d-20" value="" style="endArrow=none;html=1;rounded=0;" edge="1" parent="1" source="wX4P6Ir2SmbjYn-z66RY-5" target="wX4P6Ir2SmbjYn-z66RY-30">
          <mxGeometry relative="1" as="geometry">
            <mxPoint x="629" y="333" as="sourcePoint" />
            <mxPoint x="550" y="189" as="targetPoint" />
          </mxGeometry>
        </mxCell>
        <mxCell id="7WMYizGvkfpdb4PiuY7d-21" value="" style="endArrow=none;html=1;rounded=0;" edge="1" parent="1" source="wX4P6Ir2SmbjYn-z66RY-5" target="wX4P6Ir2SmbjYn-z66RY-23">
          <mxGeometry relative="1" as="geometry">
            <mxPoint x="640" y="335" as="sourcePoint" />
            <mxPoint x="580" y="129" as="targetPoint" />
          </mxGeometry>
        </mxCell>
        <mxCell id="7WMYizGvkfpdb4PiuY7d-22" value="" style="endArrow=none;html=1;rounded=0;" edge="1" parent="1" target="wX4P6Ir2SmbjYn-z66RY-14" source="wX4P6Ir2SmbjYn-z66RY-5">
          <mxGeometry relative="1" as="geometry">
            <mxPoint x="651" y="325" as="sourcePoint" />
            <mxPoint x="615" y="85" as="targetPoint" />
          </mxGeometry>
        </mxCell>
        <mxCell id="7WMYizGvkfpdb4PiuY7d-23" value="" style="endArrow=none;html=1;rounded=0;" edge="1" parent="1" target="wX4P6Ir2SmbjYn-z66RY-15" source="wX4P6Ir2SmbjYn-z66RY-5">
          <mxGeometry relative="1" as="geometry">
            <mxPoint x="661" y="325" as="sourcePoint" />
            <mxPoint x="674" y="130" as="targetPoint" />
          </mxGeometry>
        </mxCell>
        <mxCell id="7WMYizGvkfpdb4PiuY7d-24" value="" style="endArrow=none;html=1;rounded=0;" edge="1" parent="1" source="wX4P6Ir2SmbjYn-z66RY-5" target="wX4P6Ir2SmbjYn-z66RY-22">
          <mxGeometry relative="1" as="geometry">
            <mxPoint x="675" y="325" as="sourcePoint" />
            <mxPoint x="755" y="215" as="targetPoint" />
          </mxGeometry>
        </mxCell>
        <mxCell id="7WMYizGvkfpdb4PiuY7d-25" value="" style="endArrow=none;html=1;rounded=0;" edge="1" parent="1" source="wX4P6Ir2SmbjYn-z66RY-5" target="wX4P6Ir2SmbjYn-z66RY-20">
          <mxGeometry relative="1" as="geometry">
            <mxPoint x="690" y="335" as="sourcePoint" />
            <mxPoint x="760" y="239" as="targetPoint" />
          </mxGeometry>
        </mxCell>
        <mxCell id="7WMYizGvkfpdb4PiuY7d-26" value="Properties" style="rounded=1;arcSize=10;whiteSpace=wrap;html=1;align=center;" vertex="1" parent="1">
          <mxGeometry x="330" y="780" width="100" height="40" as="geometry" />
        </mxCell>
        <mxCell id="SDsMFg4hznAwerNVc13E-1" value="" style="endArrow=none;html=1;rounded=0;entryX=0.289;entryY=0.887;entryDx=0;entryDy=0;entryPerimeter=0;" edge="1" parent="1" target="wX4P6Ir2SmbjYn-z66RY-5">
          <mxGeometry relative="1" as="geometry">
            <mxPoint x="651" y="325" as="sourcePoint" />
            <mxPoint x="664" y="120" as="targetPoint" />
          </mxGeometry>
        </mxCell>
        <mxCell id="wX4P6Ir2SmbjYn-z66RY-5" value="Users" style="rounded=1;arcSize=10;whiteSpace=wrap;html=1;align=center;" vertex="1" parent="1">
          <mxGeometry x="605" y="305" width="100" height="40" as="geometry" />
        </mxCell>
        <mxCell id="SDsMFg4hznAwerNVc13E-2" value="id" style="ellipse;whiteSpace=wrap;html=1;align=center;fontStyle=4" vertex="1" parent="1">
          <mxGeometry x="10" y="645" width="100" height="40" as="geometry" />
        </mxCell>
        <mxCell id="SDsMFg4hznAwerNVc13E-3" value="type_attribute" style="ellipse;whiteSpace=wrap;html=1;align=center;" vertex="1" parent="1">
          <mxGeometry x="-10" y="585" width="100" height="40" as="geometry" />
        </mxCell>
        <mxCell id="SDsMFg4hznAwerNVc13E-4" value="state" style="ellipse;whiteSpace=wrap;html=1;align=center;" vertex="1" parent="1">
          <mxGeometry x="-5" y="520" width="100" height="40" as="geometry" />
        </mxCell>
        <mxCell id="SDsMFg4hznAwerNVc13E-5" value="name" style="ellipse;whiteSpace=wrap;html=1;align=center;" vertex="1" parent="1">
          <mxGeometry x="95" y="690" width="100" height="40" as="geometry" />
        </mxCell>
        <mxCell id="SDsMFg4hznAwerNVc13E-6" value="" style="endArrow=none;html=1;rounded=0;" edge="1" parent="1" source="SDsMFg4hznAwerNVc13E-3" target="wX4P6Ir2SmbjYn-z66RY-6">
          <mxGeometry relative="1" as="geometry">
            <mxPoint x="180" y="625" as="sourcePoint" />
            <mxPoint x="240" y="585" as="targetPoint" />
          </mxGeometry>
        </mxCell>
        <mxCell id="SDsMFg4hznAwerNVc13E-7" value="" style="endArrow=none;html=1;rounded=0;" edge="1" parent="1" source="SDsMFg4hznAwerNVc13E-2" target="wX4P6Ir2SmbjYn-z66RY-6">
          <mxGeometry relative="1" as="geometry">
            <mxPoint x="115" y="644" as="sourcePoint" />
            <mxPoint x="150" y="680" as="targetPoint" />
          </mxGeometry>
        </mxCell>
        <mxCell id="SDsMFg4hznAwerNVc13E-8" value="" style="endArrow=none;html=1;rounded=0;" edge="1" parent="1" source="SDsMFg4hznAwerNVc13E-4" target="wX4P6Ir2SmbjYn-z66RY-6">
          <mxGeometry relative="1" as="geometry">
            <mxPoint x="109" y="761" as="sourcePoint" />
            <mxPoint x="150" y="720" as="targetPoint" />
          </mxGeometry>
        </mxCell>
        <mxCell id="SDsMFg4hznAwerNVc13E-9" value="" style="endArrow=none;html=1;rounded=0;" edge="1" parent="1" source="SDsMFg4hznAwerNVc13E-5" target="wX4P6Ir2SmbjYn-z66RY-6">
          <mxGeometry relative="1" as="geometry">
            <mxPoint x="168" y="831" as="sourcePoint" />
            <mxPoint x="184" y="722" as="targetPoint" />
          </mxGeometry>
        </mxCell>
        <mxCell id="SDsMFg4hznAwerNVc13E-10" value="id" style="ellipse;whiteSpace=wrap;html=1;align=center;fontStyle=4" vertex="1" parent="1">
          <mxGeometry x="230" y="990" width="100" height="40" as="geometry" />
        </mxCell>
        <mxCell id="SDsMFg4hznAwerNVc13E-11" value="image" style="ellipse;whiteSpace=wrap;html=1;align=center;" vertex="1" parent="1">
          <mxGeometry x="250" y="1060" width="100" height="40" as="geometry" />
        </mxCell>
        <mxCell id="SDsMFg4hznAwerNVc13E-12" value="state" style="ellipse;whiteSpace=wrap;html=1;align=center;" vertex="1" parent="1">
          <mxGeometry x="340" y="1020" width="100" height="40" as="geometry" />
        </mxCell>
        <mxCell id="SDsMFg4hznAwerNVc13E-13" value="name" style="ellipse;whiteSpace=wrap;html=1;align=center;" vertex="1" parent="1">
          <mxGeometry x="410" y="1080" width="100" height="40" as="geometry" />
        </mxCell>
        <mxCell id="SDsMFg4hznAwerNVc13E-14" value="" style="endArrow=none;html=1;rounded=0;" edge="1" parent="1" source="SDsMFg4hznAwerNVc13E-11" target="wX4P6Ir2SmbjYn-z66RY-16">
          <mxGeometry relative="1" as="geometry">
            <mxPoint x="165" y="830" as="sourcePoint" />
            <mxPoint x="195" y="720" as="targetPoint" />
          </mxGeometry>
        </mxCell>
        <mxCell id="SDsMFg4hznAwerNVc13E-15" value="" style="endArrow=none;html=1;rounded=0;" edge="1" parent="1" source="SDsMFg4hznAwerNVc13E-10" target="wX4P6Ir2SmbjYn-z66RY-16">
          <mxGeometry relative="1" as="geometry">
            <mxPoint x="385" y="873" as="sourcePoint" />
            <mxPoint x="446" y="830" as="targetPoint" />
          </mxGeometry>
        </mxCell>
        <mxCell id="SDsMFg4hznAwerNVc13E-16" value="" style="endArrow=none;html=1;rounded=0;" edge="1" parent="1" source="SDsMFg4hznAwerNVc13E-12" target="wX4P6Ir2SmbjYn-z66RY-16">
          <mxGeometry relative="1" as="geometry">
            <mxPoint x="420" y="920" as="sourcePoint" />
            <mxPoint x="464" y="830" as="targetPoint" />
          </mxGeometry>
        </mxCell>
        <mxCell id="SDsMFg4hznAwerNVc13E-17" value="" style="endArrow=none;html=1;rounded=0;" edge="1" parent="1" source="SDsMFg4hznAwerNVc13E-13" target="wX4P6Ir2SmbjYn-z66RY-16">
          <mxGeometry relative="1" as="geometry">
            <mxPoint x="522" y="920" as="sourcePoint" />
            <mxPoint x="483" y="830" as="targetPoint" />
          </mxGeometry>
        </mxCell>
        <mxCell id="SDsMFg4hznAwerNVc13E-18" value="id" style="ellipse;whiteSpace=wrap;html=1;align=center;fontStyle=4" vertex="1" parent="1">
          <mxGeometry x="605" y="1110" width="100" height="40" as="geometry" />
        </mxCell>
        <mxCell id="SDsMFg4hznAwerNVc13E-19" value="image" style="ellipse;whiteSpace=wrap;html=1;align=center;" vertex="1" parent="1">
          <mxGeometry x="565" y="1040" width="100" height="40" as="geometry" />
        </mxCell>
        <mxCell id="SDsMFg4hznAwerNVc13E-20" value="state" style="ellipse;whiteSpace=wrap;html=1;align=center;" vertex="1" parent="1">
          <mxGeometry x="705" y="1070" width="100" height="40" as="geometry" />
        </mxCell>
        <mxCell id="SDsMFg4hznAwerNVc13E-21" value="categorie_second_id" style="ellipse;whiteSpace=wrap;html=1;align=center;" vertex="1" parent="1">
          <mxGeometry x="850" y="1060" width="140" height="40" as="geometry" />
        </mxCell>
        <mxCell id="SDsMFg4hznAwerNVc13E-22" value="" style="endArrow=none;html=1;rounded=0;" edge="1" parent="1" source="SDsMFg4hznAwerNVc13E-21" target="wX4P6Ir2SmbjYn-z66RY-10">
          <mxGeometry relative="1" as="geometry">
            <mxPoint x="870" y="802" as="sourcePoint" />
            <mxPoint x="820" y="760" as="targetPoint" />
          </mxGeometry>
        </mxCell>
        <mxCell id="SDsMFg4hznAwerNVc13E-23" value="" style="endArrow=none;html=1;rounded=0;" edge="1" parent="1" source="SDsMFg4hznAwerNVc13E-20" target="wX4P6Ir2SmbjYn-z66RY-10">
          <mxGeometry relative="1" as="geometry">
            <mxPoint x="877" y="805" as="sourcePoint" />
            <mxPoint x="775" y="760" as="targetPoint" />
          </mxGeometry>
        </mxCell>
        <mxCell id="SDsMFg4hznAwerNVc13E-24" value="" style="endArrow=none;html=1;rounded=0;" edge="1" parent="1" source="SDsMFg4hznAwerNVc13E-18" target="wX4P6Ir2SmbjYn-z66RY-10">
          <mxGeometry relative="1" as="geometry">
            <mxPoint x="756" y="880" as="sourcePoint" />
            <mxPoint x="734" y="760" as="targetPoint" />
          </mxGeometry>
        </mxCell>
        <mxCell id="SDsMFg4hznAwerNVc13E-25" value="" style="endArrow=none;html=1;rounded=0;" edge="1" parent="1" source="SDsMFg4hznAwerNVc13E-19" target="wX4P6Ir2SmbjYn-z66RY-10">
          <mxGeometry relative="1" as="geometry">
            <mxPoint x="683" y="840" as="sourcePoint" />
            <mxPoint x="721" y="760" as="targetPoint" />
          </mxGeometry>
        </mxCell>
        <mxCell id="SDsMFg4hznAwerNVc13E-26" value="name" style="ellipse;whiteSpace=wrap;html=1;align=center;" vertex="1" parent="1">
          <mxGeometry x="970" y="930" width="100" height="40" as="geometry" />
        </mxCell>
        <mxCell id="SDsMFg4hznAwerNVc13E-27" value="" style="endArrow=none;html=1;rounded=0;" edge="1" parent="1" source="SDsMFg4hznAwerNVc13E-26" target="wX4P6Ir2SmbjYn-z66RY-10">
          <mxGeometry relative="1" as="geometry">
            <mxPoint x="880" y="705" as="sourcePoint" />
            <mxPoint x="810" y="680" as="targetPoint" />
          </mxGeometry>
        </mxCell>
        <mxCell id="SDsMFg4hznAwerNVc13E-28" value="categorie_third_id" style="ellipse;whiteSpace=wrap;html=1;align=center;" vertex="1" parent="1">
          <mxGeometry x="765" y="1110" width="120" height="40" as="geometry" />
        </mxCell>
        <mxCell id="SDsMFg4hznAwerNVc13E-29" value="" style="endArrow=none;html=1;rounded=0;" edge="1" parent="1" source="SDsMFg4hznAwerNVc13E-28" target="wX4P6Ir2SmbjYn-z66RY-10">
          <mxGeometry relative="1" as="geometry">
            <mxPoint x="870" y="875" as="sourcePoint" />
            <mxPoint x="800" y="850" as="targetPoint" />
          </mxGeometry>
        </mxCell>
        <mxCell id="SDsMFg4hznAwerNVc13E-30" value="icon" style="ellipse;whiteSpace=wrap;html=1;align=center;" vertex="1" parent="1">
          <mxGeometry x="930" y="990" width="100" height="40" as="geometry" />
        </mxCell>
        <mxCell id="SDsMFg4hznAwerNVc13E-31" value="" style="endArrow=none;html=1;rounded=0;" edge="1" parent="1" source="SDsMFg4hznAwerNVc13E-30" target="wX4P6Ir2SmbjYn-z66RY-10">
          <mxGeometry relative="1" as="geometry">
            <mxPoint x="940" y="762" as="sourcePoint" />
            <mxPoint x="870" y="737" as="targetPoint" />
          </mxGeometry>
        </mxCell>
        <mxCell id="SDsMFg4hznAwerNVc13E-33" value="position" style="ellipse;whiteSpace=wrap;html=1;align=center;" vertex="1" parent="1">
          <mxGeometry x="540" y="960" width="100" height="40" as="geometry" />
        </mxCell>
        <mxCell id="SDsMFg4hznAwerNVc13E-34" value="" style="endArrow=none;html=1;rounded=0;" edge="1" parent="1" source="SDsMFg4hznAwerNVc13E-33" target="wX4P6Ir2SmbjYn-z66RY-10">
          <mxGeometry relative="1" as="geometry">
            <mxPoint x="810" y="645" as="sourcePoint" />
            <mxPoint x="723" y="680" as="targetPoint" />
          </mxGeometry>
        </mxCell>
        <mxCell id="SDsMFg4hznAwerNVc13E-35" value="type_categorie" style="ellipse;whiteSpace=wrap;html=1;align=center;" vertex="1" parent="1">
          <mxGeometry x="970" y="840" width="100" height="40" as="geometry" />
        </mxCell>
        <mxCell id="SDsMFg4hznAwerNVc13E-36" value="" style="endArrow=none;html=1;rounded=0;" edge="1" parent="1" source="SDsMFg4hznAwerNVc13E-35" target="wX4P6Ir2SmbjYn-z66RY-10">
          <mxGeometry relative="1" as="geometry">
            <mxPoint x="710" y="635" as="sourcePoint" />
            <mxPoint x="623" y="670" as="targetPoint" />
          </mxGeometry>
        </mxCell>
        <mxCell id="SDsMFg4hznAwerNVc13E-38" value="name" style="ellipse;whiteSpace=wrap;html=1;align=center;" vertex="1" parent="1">
          <mxGeometry x="1440" y="920" width="100" height="40" as="geometry" />
        </mxCell>
        <mxCell id="SDsMFg4hznAwerNVc13E-39" value="" style="endArrow=none;html=1;rounded=0;" edge="1" parent="1" source="SDsMFg4hznAwerNVc13E-38" target="wX4P6Ir2SmbjYn-z66RY-17">
          <mxGeometry relative="1" as="geometry">
            <mxPoint x="1290" y="775" as="sourcePoint" />
            <mxPoint x="1203" y="810" as="targetPoint" />
          </mxGeometry>
        </mxCell>
        <mxCell id="SDsMFg4hznAwerNVc13E-40" value="id" style="ellipse;whiteSpace=wrap;html=1;align=center;fontStyle=4" vertex="1" parent="1">
          <mxGeometry x="1460" y="990" width="100" height="40" as="geometry" />
        </mxCell>
        <mxCell id="SDsMFg4hznAwerNVc13E-41" value="" style="endArrow=none;html=1;rounded=0;" edge="1" parent="1" source="SDsMFg4hznAwerNVc13E-40" target="wX4P6Ir2SmbjYn-z66RY-17">
          <mxGeometry relative="1" as="geometry">
            <mxPoint x="1350" y="832" as="sourcePoint" />
            <mxPoint x="1210" y="830" as="targetPoint" />
          </mxGeometry>
        </mxCell>
        <mxCell id="SDsMFg4hznAwerNVc13E-42" value="code" style="ellipse;whiteSpace=wrap;html=1;align=center;" vertex="1" parent="1">
          <mxGeometry x="1371" y="830" width="100" height="40" as="geometry" />
        </mxCell>
        <mxCell id="SDsMFg4hznAwerNVc13E-43" value="" style="endArrow=none;html=1;rounded=0;" edge="1" parent="1" source="SDsMFg4hznAwerNVc13E-42" target="wX4P6Ir2SmbjYn-z66RY-17">
          <mxGeometry relative="1" as="geometry">
            <mxPoint x="1220" y="715" as="sourcePoint" />
            <mxPoint x="1170" y="810" as="targetPoint" />
          </mxGeometry>
        </mxCell>
        <mxCell id="SDsMFg4hznAwerNVc13E-44" value="type_discount" style="ellipse;whiteSpace=wrap;html=1;align=center;" vertex="1" parent="1">
          <mxGeometry x="1420" y="1050" width="100" height="40" as="geometry" />
        </mxCell>
        <mxCell id="SDsMFg4hznAwerNVc13E-45" value="" style="endArrow=none;html=1;rounded=0;" edge="1" parent="1" source="SDsMFg4hznAwerNVc13E-44" target="wX4P6Ir2SmbjYn-z66RY-17">
          <mxGeometry relative="1" as="geometry">
            <mxPoint x="1344" y="925" as="sourcePoint" />
            <mxPoint x="1280" y="1000" as="targetPoint" />
          </mxGeometry>
        </mxCell>
        <mxCell id="SDsMFg4hznAwerNVc13E-46" value="discount" style="ellipse;whiteSpace=wrap;html=1;align=center;" vertex="1" parent="1">
          <mxGeometry x="1180" y="1120" width="100" height="40" as="geometry" />
        </mxCell>
        <mxCell id="SDsMFg4hznAwerNVc13E-47" value="" style="endArrow=none;html=1;rounded=0;" edge="1" parent="1" source="SDsMFg4hznAwerNVc13E-46" target="wX4P6Ir2SmbjYn-z66RY-17">
          <mxGeometry relative="1" as="geometry">
            <mxPoint x="1294" y="966" as="sourcePoint" />
            <mxPoint x="1210" y="930" as="targetPoint" />
          </mxGeometry>
        </mxCell>
        <mxCell id="SDsMFg4hznAwerNVc13E-48" value="type_count" style="ellipse;whiteSpace=wrap;html=1;align=center;" vertex="1" parent="1">
          <mxGeometry x="1090" y="1070" width="100" height="40" as="geometry" />
        </mxCell>
        <mxCell id="SDsMFg4hznAwerNVc13E-49" value="" style="endArrow=none;html=1;rounded=0;" edge="1" parent="1" source="SDsMFg4hznAwerNVc13E-48" target="wX4P6Ir2SmbjYn-z66RY-17">
          <mxGeometry relative="1" as="geometry">
            <mxPoint x="1194" y="977" as="sourcePoint" />
            <mxPoint x="1110" y="941" as="targetPoint" />
          </mxGeometry>
        </mxCell>
        <mxCell id="SDsMFg4hznAwerNVc13E-50" value="num_uses" style="ellipse;whiteSpace=wrap;html=1;align=center;" vertex="1" parent="1">
          <mxGeometry x="1330" y="1100" width="100" height="40" as="geometry" />
        </mxCell>
        <mxCell id="SDsMFg4hznAwerNVc13E-51" value="" style="endArrow=none;html=1;rounded=0;" edge="1" parent="1" source="SDsMFg4hznAwerNVc13E-50" target="wX4P6Ir2SmbjYn-z66RY-17">
          <mxGeometry relative="1" as="geometry">
            <mxPoint x="1374" y="955" as="sourcePoint" />
            <mxPoint x="1290" y="919" as="targetPoint" />
          </mxGeometry>
        </mxCell>
        <mxCell id="SDsMFg4hznAwerNVc13E-52" value="state" style="ellipse;whiteSpace=wrap;html=1;align=center;" vertex="1" parent="1">
          <mxGeometry x="1230" y="1050" width="100" height="40" as="geometry" />
        </mxCell>
        <mxCell id="SDsMFg4hznAwerNVc13E-53" value="" style="endArrow=none;html=1;rounded=0;" edge="1" parent="1" source="SDsMFg4hznAwerNVc13E-52" target="wX4P6Ir2SmbjYn-z66RY-17">
          <mxGeometry relative="1" as="geometry">
            <mxPoint x="1384" y="965" as="sourcePoint" />
            <mxPoint x="1300" y="929" as="targetPoint" />
          </mxGeometry>
        </mxCell>
        <mxCell id="SDsMFg4hznAwerNVc13E-54" value="id" style="ellipse;whiteSpace=wrap;html=1;align=center;fontStyle=4" vertex="1" parent="1">
          <mxGeometry x="1480" y="545" width="100" height="40" as="geometry" />
        </mxCell>
        <mxCell id="SDsMFg4hznAwerNVc13E-55" value="" style="endArrow=none;html=1;rounded=0;" edge="1" parent="1" source="SDsMFg4hznAwerNVc13E-54" target="wX4P6Ir2SmbjYn-z66RY-3">
          <mxGeometry relative="1" as="geometry">
            <mxPoint x="1378" y="465" as="sourcePoint" />
            <mxPoint x="1390" y="600" as="targetPoint" />
          </mxGeometry>
        </mxCell>
        <mxCell id="SDsMFg4hznAwerNVc13E-56" value="code" style="ellipse;whiteSpace=wrap;html=1;align=center;" vertex="1" parent="1">
          <mxGeometry x="1480" y="600" width="100" height="40" as="geometry" />
        </mxCell>
        <mxCell id="SDsMFg4hznAwerNVc13E-57" value="" style="endArrow=none;html=1;rounded=0;" edge="1" parent="1" source="SDsMFg4hznAwerNVc13E-56" target="wX4P6Ir2SmbjYn-z66RY-3">
          <mxGeometry relative="1" as="geometry">
            <mxPoint x="1458" y="525" as="sourcePoint" />
            <mxPoint x="1470" y="660" as="targetPoint" />
          </mxGeometry>
        </mxCell>
        <mxCell id="SDsMFg4hznAwerNVc13E-60" value="type_campaign" style="ellipse;whiteSpace=wrap;html=1;align=center;" vertex="1" parent="1">
          <mxGeometry x="1526" y="645" width="100" height="40" as="geometry" />
        </mxCell>
        <mxCell id="SDsMFg4hznAwerNVc13E-61" value="" style="endArrow=none;html=1;rounded=0;" edge="1" parent="1" source="SDsMFg4hznAwerNVc13E-60" target="wX4P6Ir2SmbjYn-z66RY-3">
          <mxGeometry relative="1" as="geometry">
            <mxPoint x="1486" y="600" as="sourcePoint" />
            <mxPoint x="1498" y="735" as="targetPoint" />
          </mxGeometry>
        </mxCell>
        <mxCell id="SDsMFg4hznAwerNVc13E-62" value="type_discount" style="ellipse;whiteSpace=wrap;html=1;align=center;" vertex="1" parent="1">
          <mxGeometry x="1526" y="710" width="100" height="40" as="geometry" />
        </mxCell>
        <mxCell id="SDsMFg4hznAwerNVc13E-63" value="" style="endArrow=none;html=1;rounded=0;" edge="1" parent="1" source="SDsMFg4hznAwerNVc13E-62" target="wX4P6Ir2SmbjYn-z66RY-3">
          <mxGeometry relative="1" as="geometry">
            <mxPoint x="1468" y="695" as="sourcePoint" />
            <mxPoint x="1480" y="830" as="targetPoint" />
          </mxGeometry>
        </mxCell>
        <mxCell id="SDsMFg4hznAwerNVc13E-64" value="discount" style="ellipse;whiteSpace=wrap;html=1;align=center;" vertex="1" parent="1">
          <mxGeometry x="1520" y="770" width="100" height="40" as="geometry" />
        </mxCell>
        <mxCell id="SDsMFg4hznAwerNVc13E-65" value="" style="endArrow=none;html=1;rounded=0;" edge="1" parent="1" source="SDsMFg4hznAwerNVc13E-64" target="wX4P6Ir2SmbjYn-z66RY-3">
          <mxGeometry relative="1" as="geometry">
            <mxPoint x="1468" y="780" as="sourcePoint" />
            <mxPoint x="1480" y="915" as="targetPoint" />
          </mxGeometry>
        </mxCell>
        <mxCell id="SDsMFg4hznAwerNVc13E-66" value="target_discount&lt;span style=&quot;color: rgba(0, 0, 0, 0); font-family: monospace; font-size: 0px; text-align: start; text-wrap-mode: nowrap;&quot;&gt;%3CmxGraphModel%3E%3Croot%3E%3CmxCell%20id%3D%220%22%2F%3E%3CmxCell%20id%3D%221%22%20parent%3D%220%22%2F%3E%3CmxCell%20id%3D%222%22%20value%3D%22discount%22%20style%3D%22ellipse%3BwhiteSpace%3Dwrap%3Bhtml%3D1%3Balign%3Dcenter%3B%22%20vertex%3D%221%22%20parent%3D%221%22%3E%3CmxGeometry%20x%3D%221508%22%20y%3D%22825%22%20width%3D%22100%22%20height%3D%2240%22%20as%3D%22geometry%22%2F%3E%3C%2FmxCell%3E%3CmxCell%20id%3D%223%22%20value%3D%22%22%20style%3D%22endArrow%3Dnone%3Bhtml%3D1%3Brounded%3D0%3B%22%20edge%3D%221%22%20source%3D%222%22%20parent%3D%221%22%3E%3CmxGeometry%20relative%3D%221%22%20as%3D%22geometry%22%3E%3CmxPoint%20x%3D%221468%22%20y%3D%22780%22%20as%3D%22sourcePoint%22%2F%3E%3CmxPoint%20x%3D%221427%22%20y%3D%22690%22%20as%3D%22targetPoint%22%2F%3E%3C%2FmxGeometry%3E%3C%2FmxCell%3E%3C%2Froot%3E%3C%2FmxGraphModel%3E&lt;/span&gt;" style="ellipse;whiteSpace=wrap;html=1;align=center;" vertex="1" parent="1">
          <mxGeometry x="1490" y="840" width="100" height="40" as="geometry" />
        </mxCell>
        <mxCell id="SDsMFg4hznAwerNVc13E-67" value="" style="endArrow=none;html=1;rounded=0;" edge="1" parent="1" source="SDsMFg4hznAwerNVc13E-66" target="wX4P6Ir2SmbjYn-z66RY-3">
          <mxGeometry relative="1" as="geometry">
            <mxPoint x="1431" y="810" as="sourcePoint" />
            <mxPoint x="1390" y="720" as="targetPoint" />
          </mxGeometry>
        </mxCell>
        <mxCell id="SDsMFg4hznAwerNVc13E-68" value="state" style="ellipse;whiteSpace=wrap;html=1;align=center;" vertex="1" parent="1">
          <mxGeometry x="1460" y="480" width="100" height="40" as="geometry" />
        </mxCell>
        <mxCell id="SDsMFg4hznAwerNVc13E-69" value="" style="endArrow=none;html=1;rounded=0;" edge="1" parent="1" source="SDsMFg4hznAwerNVc13E-68" target="wX4P6Ir2SmbjYn-z66RY-3">
          <mxGeometry relative="1" as="geometry">
            <mxPoint x="1293" y="460" as="sourcePoint" />
            <mxPoint x="1280" y="340" as="targetPoint" />
          </mxGeometry>
        </mxCell>
        <mxCell id="SDsMFg4hznAwerNVc13E-70" value="end_date" style="ellipse;whiteSpace=wrap;html=1;align=center;" vertex="1" parent="1">
          <mxGeometry x="1340" y="470" width="100" height="40" as="geometry" />
        </mxCell>
        <mxCell id="SDsMFg4hznAwerNVc13E-71" value="" style="endArrow=none;html=1;rounded=0;entryX=0.5;entryY=0;entryDx=0;entryDy=0;" edge="1" parent="1" source="SDsMFg4hznAwerNVc13E-70" target="wX4P6Ir2SmbjYn-z66RY-3">
          <mxGeometry relative="1" as="geometry">
            <mxPoint x="1341" y="385" as="sourcePoint" />
            <mxPoint x="1451" y="575" as="targetPoint" />
          </mxGeometry>
        </mxCell>
        <mxCell id="SDsMFg4hznAwerNVc13E-74" value="start_date" style="ellipse;whiteSpace=wrap;html=1;align=center;" vertex="1" parent="1">
          <mxGeometry x="1410" y="420" width="100" height="40" as="geometry" />
        </mxCell>
        <mxCell id="SDsMFg4hznAwerNVc13E-75" value="" style="endArrow=none;html=1;rounded=0;" edge="1" parent="1" source="SDsMFg4hznAwerNVc13E-74" target="wX4P6Ir2SmbjYn-z66RY-3">
          <mxGeometry relative="1" as="geometry">
            <mxPoint x="1381" y="320" as="sourcePoint" />
            <mxPoint x="1450" y="585" as="targetPoint" />
          </mxGeometry>
        </mxCell>
        <mxCell id="SDsMFg4hznAwerNVc13E-76" value="attribute_id" style="ellipse;whiteSpace=wrap;html=1;align=center;" vertex="1" parent="1">
          <mxGeometry x="-10" y="810" width="100" height="40" as="geometry" />
        </mxCell>
        <mxCell id="SDsMFg4hznAwerNVc13E-77" value="" style="endArrow=none;html=1;rounded=0;" edge="1" parent="1" source="SDsMFg4hznAwerNVc13E-76" target="7WMYizGvkfpdb4PiuY7d-26">
          <mxGeometry relative="1" as="geometry">
            <mxPoint x="-35" y="1080" as="sourcePoint" />
            <mxPoint x="214" y="1053" as="targetPoint" />
          </mxGeometry>
        </mxCell>
        <mxCell id="SDsMFg4hznAwerNVc13E-78" value="id" style="ellipse;whiteSpace=wrap;html=1;align=center;fontStyle=4" vertex="1" parent="1">
          <mxGeometry x="940" y="60" width="100" height="40" as="geometry" />
        </mxCell>
        <mxCell id="SDsMFg4hznAwerNVc13E-79" value="" style="endArrow=none;html=1;rounded=0;" edge="1" parent="1" source="SDsMFg4hznAwerNVc13E-78" target="wX4P6Ir2SmbjYn-z66RY-2">
          <mxGeometry relative="1" as="geometry">
            <mxPoint x="1061" y="185" as="sourcePoint" />
            <mxPoint x="1100.769230769231" y="530" as="targetPoint" />
          </mxGeometry>
        </mxCell>
        <mxCell id="SDsMFg4hznAwerNVc13E-80" value="slug" style="ellipse;whiteSpace=wrap;html=1;align=center;" vertex="1" parent="1">
          <mxGeometry x="1030" y="100" width="100" height="40" as="geometry" />
        </mxCell>
        <mxCell id="SDsMFg4hznAwerNVc13E-81" value="" style="endArrow=none;html=1;rounded=0;" edge="1" parent="1" source="SDsMFg4hznAwerNVc13E-80" target="wX4P6Ir2SmbjYn-z66RY-2">
          <mxGeometry relative="1" as="geometry">
            <mxPoint x="1131" y="105" as="sourcePoint" />
            <mxPoint x="1178" y="450" as="targetPoint" />
          </mxGeometry>
        </mxCell>
        <mxCell id="SDsMFg4hznAwerNVc13E-82" value="sku" style="ellipse;whiteSpace=wrap;html=1;align=center;" vertex="1" parent="1">
          <mxGeometry x="1110" y="50" width="100" height="40" as="geometry" />
        </mxCell>
        <mxCell id="SDsMFg4hznAwerNVc13E-83" value="" style="endArrow=none;html=1;rounded=0;" edge="1" parent="1" source="SDsMFg4hznAwerNVc13E-82" target="wX4P6Ir2SmbjYn-z66RY-2">
          <mxGeometry relative="1" as="geometry">
            <mxPoint x="1221" y="75" as="sourcePoint" />
            <mxPoint x="1268" y="420" as="targetPoint" />
          </mxGeometry>
        </mxCell>
        <mxCell id="SDsMFg4hznAwerNVc13E-84" value="price_eur" style="ellipse;whiteSpace=wrap;html=1;align=center;" vertex="1" parent="1">
          <mxGeometry x="1241" y="60" width="100" height="40" as="geometry" />
        </mxCell>
        <mxCell id="SDsMFg4hznAwerNVc13E-85" value="" style="endArrow=none;html=1;rounded=0;" edge="1" parent="1" source="SDsMFg4hznAwerNVc13E-84" target="wX4P6Ir2SmbjYn-z66RY-2">
          <mxGeometry relative="1" as="geometry">
            <mxPoint x="1298" y="115" as="sourcePoint" />
            <mxPoint x="1200" y="570" as="targetPoint" />
          </mxGeometry>
        </mxCell>
        <mxCell id="SDsMFg4hznAwerNVc13E-86" value="description" style="ellipse;whiteSpace=wrap;html=1;align=center;" vertex="1" parent="1">
          <mxGeometry x="1271" y="120" width="100" height="40" as="geometry" />
        </mxCell>
        <mxCell id="SDsMFg4hznAwerNVc13E-87" value="" style="endArrow=none;html=1;rounded=0;" edge="1" parent="1" source="SDsMFg4hznAwerNVc13E-86" target="wX4P6Ir2SmbjYn-z66RY-2">
          <mxGeometry relative="1" as="geometry">
            <mxPoint x="1378" y="135" as="sourcePoint" />
            <mxPoint x="1280" y="590" as="targetPoint" />
          </mxGeometry>
        </mxCell>
        <mxCell id="SDsMFg4hznAwerNVc13E-88" value="title" style="ellipse;whiteSpace=wrap;html=1;align=center;" vertex="1" parent="1">
          <mxGeometry x="1160" y="110" width="100" height="40" as="geometry" />
        </mxCell>
        <mxCell id="SDsMFg4hznAwerNVc13E-89" value="" style="endArrow=none;html=1;rounded=0;" edge="1" parent="1" source="SDsMFg4hznAwerNVc13E-88" target="wX4P6Ir2SmbjYn-z66RY-2">
          <mxGeometry relative="1" as="geometry">
            <mxPoint x="1251" y="105" as="sourcePoint" />
            <mxPoint x="1153" y="560" as="targetPoint" />
          </mxGeometry>
        </mxCell>
        <mxCell id="SDsMFg4hznAwerNVc13E-90" value="tags" style="ellipse;whiteSpace=wrap;html=1;align=center;" vertex="1" parent="1">
          <mxGeometry x="1360" y="80" width="100" height="40" as="geometry" />
        </mxCell>
        <mxCell id="SDsMFg4hznAwerNVc13E-91" value="" style="endArrow=none;html=1;rounded=0;" edge="1" parent="1" source="SDsMFg4hznAwerNVc13E-90" target="wX4P6Ir2SmbjYn-z66RY-2">
          <mxGeometry relative="1" as="geometry">
            <mxPoint x="1489" y="105" as="sourcePoint" />
            <mxPoint x="1241" y="500" as="targetPoint" />
          </mxGeometry>
        </mxCell>
        <mxCell id="SDsMFg4hznAwerNVc13E-92" value="stock" style="ellipse;whiteSpace=wrap;html=1;align=center;" vertex="1" parent="1">
          <mxGeometry x="1390" y="300" width="100" height="40" as="geometry" />
        </mxCell>
        <mxCell id="SDsMFg4hznAwerNVc13E-93" value="" style="endArrow=none;html=1;rounded=0;" edge="1" parent="1" source="SDsMFg4hznAwerNVc13E-92" target="wX4P6Ir2SmbjYn-z66RY-2">
          <mxGeometry relative="1" as="geometry">
            <mxPoint x="1259" y="445" as="sourcePoint" />
            <mxPoint x="1101" y="600" as="targetPoint" />
          </mxGeometry>
        </mxCell>
        <mxCell id="SDsMFg4hznAwerNVc13E-94" value="categorie_first_id" style="ellipse;whiteSpace=wrap;html=1;align=center;" vertex="1" parent="1">
          <mxGeometry x="1490" y="290" width="110" height="40" as="geometry" />
        </mxCell>
        <mxCell id="SDsMFg4hznAwerNVc13E-95" value="" style="endArrow=none;html=1;rounded=0;" edge="1" parent="1" source="SDsMFg4hznAwerNVc13E-94" target="wX4P6Ir2SmbjYn-z66RY-2">
          <mxGeometry relative="1" as="geometry">
            <mxPoint x="1124" y="455" as="sourcePoint" />
            <mxPoint x="990" y="580" as="targetPoint" />
          </mxGeometry>
        </mxCell>
        <mxCell id="SDsMFg4hznAwerNVc13E-96" value="image" style="ellipse;whiteSpace=wrap;html=1;align=center;" vertex="1" parent="1">
          <mxGeometry x="1371" y="170" width="100" height="40" as="geometry" />
        </mxCell>
        <mxCell id="SDsMFg4hznAwerNVc13E-97" value="" style="endArrow=none;html=1;rounded=0;" edge="1" parent="1" source="SDsMFg4hznAwerNVc13E-96" target="wX4P6Ir2SmbjYn-z66RY-2">
          <mxGeometry relative="1" as="geometry">
            <mxPoint x="1354" y="375" as="sourcePoint" />
            <mxPoint x="1220" y="500" as="targetPoint" />
          </mxGeometry>
        </mxCell>
        <mxCell id="SDsMFg4hznAwerNVc13E-98" value="brand_id" style="ellipse;whiteSpace=wrap;html=1;align=center;" vertex="1" parent="1">
          <mxGeometry x="1380" y="240" width="100" height="40" as="geometry" />
        </mxCell>
        <mxCell id="SDsMFg4hznAwerNVc13E-99" value="" style="endArrow=none;html=1;rounded=0;" edge="1" parent="1" source="SDsMFg4hznAwerNVc13E-98" target="wX4P6Ir2SmbjYn-z66RY-2">
          <mxGeometry relative="1" as="geometry">
            <mxPoint x="1338" y="425" as="sourcePoint" />
            <mxPoint x="1204" y="550" as="targetPoint" />
          </mxGeometry>
        </mxCell>
        <mxCell id="SDsMFg4hznAwerNVc13E-100" value="categorie_second_id" style="ellipse;whiteSpace=wrap;html=1;align=center;" vertex="1" parent="1">
          <mxGeometry x="865" y="130" width="130" height="40" as="geometry" />
        </mxCell>
        <mxCell id="SDsMFg4hznAwerNVc13E-101" value="" style="endArrow=none;html=1;rounded=0;" edge="1" parent="1" source="SDsMFg4hznAwerNVc13E-100" target="wX4P6Ir2SmbjYn-z66RY-2">
          <mxGeometry relative="1" as="geometry">
            <mxPoint x="1004" y="455" as="sourcePoint" />
            <mxPoint x="993" y="570" as="targetPoint" />
          </mxGeometry>
        </mxCell>
        <mxCell id="SDsMFg4hznAwerNVc13E-102" value="categorie_third_id" style="ellipse;whiteSpace=wrap;html=1;align=center;" vertex="1" parent="1">
          <mxGeometry x="1480" y="340" width="120" height="40" as="geometry" />
        </mxCell>
        <mxCell id="SDsMFg4hznAwerNVc13E-103" value="" style="endArrow=none;html=1;rounded=0;" edge="1" parent="1" source="SDsMFg4hznAwerNVc13E-102" target="wX4P6Ir2SmbjYn-z66RY-2">
          <mxGeometry relative="1" as="geometry">
            <mxPoint x="1044" y="465" as="sourcePoint" />
            <mxPoint x="1033" y="580" as="targetPoint" />
          </mxGeometry>
        </mxCell>
        <mxCell id="SDsMFg4hznAwerNVc13E-105" value="Products_specifications" style="rounded=1;arcSize=10;whiteSpace=wrap;html=1;align=center;" vertex="1" parent="1">
          <mxGeometry x="485" y="565" width="130" height="40" as="geometry" />
        </mxCell>
        <mxCell id="SDsMFg4hznAwerNVc13E-108" value="product_id" style="ellipse;whiteSpace=wrap;html=1;align=center;" vertex="1" parent="1">
          <mxGeometry x="60" y="410" width="100" height="40" as="geometry" />
        </mxCell>
        <mxCell id="SDsMFg4hznAwerNVc13E-109" value="" style="endArrow=none;html=1;rounded=0;" edge="1" parent="1" source="SDsMFg4hznAwerNVc13E-108" target="SDsMFg4hznAwerNVc13E-105">
          <mxGeometry relative="1" as="geometry">
            <mxPoint x="202" y="661" as="sourcePoint" />
            <mxPoint x="310" y="520" as="targetPoint" />
          </mxGeometry>
        </mxCell>
        <mxCell id="SDsMFg4hznAwerNVc13E-110" value="attribute_id" style="ellipse;whiteSpace=wrap;html=1;align=center;" vertex="1" parent="1">
          <mxGeometry x="180" y="410" width="100" height="40" as="geometry" />
        </mxCell>
        <mxCell id="SDsMFg4hznAwerNVc13E-111" value="" style="endArrow=none;html=1;rounded=0;" edge="1" parent="1" source="SDsMFg4hznAwerNVc13E-110" target="SDsMFg4hznAwerNVc13E-105">
          <mxGeometry relative="1" as="geometry">
            <mxPoint x="343" y="651" as="sourcePoint" />
            <mxPoint x="451" y="510" as="targetPoint" />
          </mxGeometry>
        </mxCell>
        <mxCell id="SDsMFg4hznAwerNVc13E-112" value="id" style="ellipse;whiteSpace=wrap;html=1;align=center;fontStyle=4" vertex="1" parent="1">
          <mxGeometry x="90" y="460" width="100" height="40" as="geometry" />
        </mxCell>
        <mxCell id="SDsMFg4hznAwerNVc13E-113" value="" style="endArrow=none;html=1;rounded=0;" edge="1" parent="1" source="SDsMFg4hznAwerNVc13E-112" target="SDsMFg4hznAwerNVc13E-105">
          <mxGeometry relative="1" as="geometry">
            <mxPoint x="224" y="741" as="sourcePoint" />
            <mxPoint x="332" y="600" as="targetPoint" />
          </mxGeometry>
        </mxCell>
        <mxCell id="SDsMFg4hznAwerNVc13E-114" value="property_id" style="ellipse;whiteSpace=wrap;html=1;align=center;" vertex="1" parent="1">
          <mxGeometry x="295" y="405" width="100" height="40" as="geometry" />
        </mxCell>
        <mxCell id="SDsMFg4hznAwerNVc13E-115" value="" style="endArrow=none;html=1;rounded=0;" edge="1" parent="1" source="SDsMFg4hznAwerNVc13E-114" target="SDsMFg4hznAwerNVc13E-105">
          <mxGeometry relative="1" as="geometry">
            <mxPoint x="477" y="641" as="sourcePoint" />
            <mxPoint x="585" y="500" as="targetPoint" />
          </mxGeometry>
        </mxCell>
        <mxCell id="SDsMFg4hznAwerNVc13E-116" value="value_add" style="ellipse;whiteSpace=wrap;html=1;align=center;" vertex="1" parent="1">
          <mxGeometry x="410" y="395" width="100" height="40" as="geometry" />
        </mxCell>
        <mxCell id="SDsMFg4hznAwerNVc13E-117" value="" style="endArrow=none;html=1;rounded=0;" edge="1" parent="1" source="SDsMFg4hznAwerNVc13E-116" target="SDsMFg4hznAwerNVc13E-105">
          <mxGeometry relative="1" as="geometry">
            <mxPoint x="624" y="636" as="sourcePoint" />
            <mxPoint x="680" y="560" as="targetPoint" />
          </mxGeometry>
        </mxCell>
        <mxCell id="SDsMFg4hznAwerNVc13E-118" value="state" style="ellipse;whiteSpace=wrap;html=1;align=center;" vertex="1" parent="1">
          <mxGeometry x="515" y="430" width="100" height="40" as="geometry" />
        </mxCell>
        <mxCell id="SDsMFg4hznAwerNVc13E-119" value="" style="endArrow=none;html=1;rounded=0;" edge="1" parent="1" source="SDsMFg4hznAwerNVc13E-118" target="SDsMFg4hznAwerNVc13E-105">
          <mxGeometry relative="1" as="geometry">
            <mxPoint x="744" y="646" as="sourcePoint" />
            <mxPoint x="671" y="575" as="targetPoint" />
          </mxGeometry>
        </mxCell>
        <mxCell id="SDsMFg4hznAwerNVc13E-120" value="name" style="ellipse;whiteSpace=wrap;html=1;align=center;" vertex="1" parent="1">
          <mxGeometry x="50" y="860" width="100" height="40" as="geometry" />
        </mxCell>
        <mxCell id="SDsMFg4hznAwerNVc13E-121" value="" style="endArrow=none;html=1;rounded=0;" edge="1" parent="1" source="SDsMFg4hznAwerNVc13E-120" target="7WMYizGvkfpdb4PiuY7d-26">
          <mxGeometry relative="1" as="geometry">
            <mxPoint x="-25" y="1090" as="sourcePoint" />
            <mxPoint x="337" y="740" as="targetPoint" />
          </mxGeometry>
        </mxCell>
        <mxCell id="SDsMFg4hznAwerNVc13E-122" value="id" style="ellipse;whiteSpace=wrap;html=1;align=center;fontStyle=4" vertex="1" parent="1">
          <mxGeometry x="-10" y="760" width="100" height="40" as="geometry" />
        </mxCell>
        <mxCell id="SDsMFg4hznAwerNVc13E-123" value="" style="endArrow=none;html=1;rounded=0;" edge="1" parent="1" source="SDsMFg4hznAwerNVc13E-122" target="7WMYizGvkfpdb4PiuY7d-26">
          <mxGeometry relative="1" as="geometry">
            <mxPoint x="-90" y="1030" as="sourcePoint" />
            <mxPoint x="272" y="680" as="targetPoint" />
          </mxGeometry>
        </mxCell>
        <mxCell id="SDsMFg4hznAwerNVc13E-124" value="code" style="ellipse;whiteSpace=wrap;html=1;align=center;" vertex="1" parent="1">
          <mxGeometry x="135" y="910" width="100" height="40" as="geometry" />
        </mxCell>
        <mxCell id="SDsMFg4hznAwerNVc13E-125" value="" style="endArrow=none;html=1;rounded=0;" edge="1" parent="1" source="SDsMFg4hznAwerNVc13E-124" target="7WMYizGvkfpdb4PiuY7d-26">
          <mxGeometry relative="1" as="geometry">
            <mxPoint x="60" y="1140" as="sourcePoint" />
            <mxPoint x="397" y="780" as="targetPoint" />
          </mxGeometry>
        </mxCell>
        <mxCell id="SDsMFg4hznAwerNVc13E-126" value="buy" style="rhombus;whiteSpace=wrap;html=1;" vertex="1" parent="1">
          <mxGeometry x="810" y="375" width="80" height="80" as="geometry" />
        </mxCell>
        <mxCell id="SDsMFg4hznAwerNVc13E-127" value="total" style="ellipse;whiteSpace=wrap;html=1;" vertex="1" parent="1">
          <mxGeometry x="860" y="330" width="75" height="40" as="geometry" />
        </mxCell>
        <mxCell id="SDsMFg4hznAwerNVc13E-128" value="" style="endArrow=none;html=1;rounded=0;exitX=0.75;exitY=1;exitDx=0;exitDy=0;" edge="1" parent="1" source="wX4P6Ir2SmbjYn-z66RY-5" target="SDsMFg4hznAwerNVc13E-126">
          <mxGeometry relative="1" as="geometry">
            <mxPoint x="715" y="316" as="sourcePoint" />
            <mxPoint x="789" y="289" as="targetPoint" />
          </mxGeometry>
        </mxCell>
        <mxCell id="SDsMFg4hznAwerNVc13E-129" value="" style="endArrow=none;html=1;rounded=0;" edge="1" parent="1" source="SDsMFg4hznAwerNVc13E-126" target="SDsMFg4hznAwerNVc13E-127">
          <mxGeometry relative="1" as="geometry">
            <mxPoint x="690" y="355" as="sourcePoint" />
            <mxPoint x="833" y="427" as="targetPoint" />
          </mxGeometry>
        </mxCell>
        <mxCell id="SDsMFg4hznAwerNVc13E-130" value="" style="endArrow=none;html=1;rounded=0;" edge="1" parent="1" source="SDsMFg4hznAwerNVc13E-126" target="wX4P6Ir2SmbjYn-z66RY-2">
          <mxGeometry relative="1" as="geometry">
            <mxPoint x="690" y="355" as="sourcePoint" />
            <mxPoint x="833" y="427" as="targetPoint" />
          </mxGeometry>
        </mxCell>
        <mxCell id="SDsMFg4hznAwerNVc13E-131" value="have" style="rhombus;whiteSpace=wrap;html=1;" vertex="1" parent="1">
          <mxGeometry x="1201" y="545" width="80" height="80" as="geometry" />
        </mxCell>
        <mxCell id="SDsMFg4hznAwerNVc13E-132" value="" style="endArrow=none;html=1;rounded=0;" edge="1" parent="1" source="wX4P6Ir2SmbjYn-z66RY-3" target="SDsMFg4hznAwerNVc13E-131">
          <mxGeometry relative="1" as="geometry">
            <mxPoint x="1402" y="520" as="sourcePoint" />
            <mxPoint x="1420" y="660" as="targetPoint" />
          </mxGeometry>
        </mxCell>
        <mxCell id="SDsMFg4hznAwerNVc13E-133" value="" style="endArrow=none;html=1;rounded=0;" edge="1" parent="1" source="SDsMFg4hznAwerNVc13E-131" target="wX4P6Ir2SmbjYn-z66RY-2">
          <mxGeometry relative="1" as="geometry">
            <mxPoint x="1380" y="660" as="sourcePoint" />
            <mxPoint x="1278" y="608" as="targetPoint" />
          </mxGeometry>
        </mxCell>
        <mxCell id="SDsMFg4hznAwerNVc13E-134" value="have" style="rhombus;whiteSpace=wrap;html=1;" vertex="1" parent="1">
          <mxGeometry x="1300" y="740" width="80" height="80" as="geometry" />
        </mxCell>
        <mxCell id="SDsMFg4hznAwerNVc13E-135" value="" style="endArrow=none;html=1;rounded=0;" edge="1" parent="1" source="wX4P6Ir2SmbjYn-z66RY-3" target="SDsMFg4hznAwerNVc13E-134">
          <mxGeometry relative="1" as="geometry">
            <mxPoint x="1380" y="660" as="sourcePoint" />
            <mxPoint x="1278" y="608" as="targetPoint" />
          </mxGeometry>
        </mxCell>
        <mxCell id="SDsMFg4hznAwerNVc13E-136" value="" style="endArrow=none;html=1;rounded=0;" edge="1" parent="1" source="SDsMFg4hznAwerNVc13E-134" target="wX4P6Ir2SmbjYn-z66RY-17">
          <mxGeometry relative="1" as="geometry">
            <mxPoint x="1370" y="694" as="sourcePoint" />
            <mxPoint x="1311" y="711" as="targetPoint" />
          </mxGeometry>
        </mxCell>
        <mxCell id="SDsMFg4hznAwerNVc13E-137" value="owns" style="rhombus;whiteSpace=wrap;html=1;" vertex="1" parent="1">
          <mxGeometry x="344" y="580" width="80" height="80" as="geometry" />
        </mxCell>
        <mxCell id="SDsMFg4hznAwerNVc13E-138" value="owns" style="rhombus;whiteSpace=wrap;html=1;" vertex="1" parent="1">
          <mxGeometry x="440" y="640" width="80" height="80" as="geometry" />
        </mxCell>
        <mxCell id="SDsMFg4hznAwerNVc13E-139" value="" style="endArrow=none;html=1;rounded=0;" edge="1" parent="1" source="SDsMFg4hznAwerNVc13E-137" target="wX4P6Ir2SmbjYn-z66RY-6">
          <mxGeometry relative="1" as="geometry">
            <mxPoint x="339" y="576.5" as="sourcePoint" />
            <mxPoint x="280" y="593.5" as="targetPoint" />
          </mxGeometry>
        </mxCell>
        <mxCell id="SDsMFg4hznAwerNVc13E-140" value="" style="endArrow=none;html=1;rounded=0;" edge="1" parent="1" source="SDsMFg4hznAwerNVc13E-105" target="SDsMFg4hznAwerNVc13E-137">
          <mxGeometry relative="1" as="geometry">
            <mxPoint x="377" y="627" as="sourcePoint" />
            <mxPoint x="320" y="639" as="targetPoint" />
          </mxGeometry>
        </mxCell>
        <mxCell id="SDsMFg4hznAwerNVc13E-141" value="" style="endArrow=none;html=1;rounded=0;" edge="1" parent="1" source="SDsMFg4hznAwerNVc13E-105" target="SDsMFg4hznAwerNVc13E-138">
          <mxGeometry relative="1" as="geometry">
            <mxPoint x="495" y="606" as="sourcePoint" />
            <mxPoint x="444" y="614" as="targetPoint" />
          </mxGeometry>
        </mxCell>
        <mxCell id="SDsMFg4hznAwerNVc13E-142" value="" style="endArrow=none;html=1;rounded=0;" edge="1" parent="1" source="SDsMFg4hznAwerNVc13E-138" target="7WMYizGvkfpdb4PiuY7d-26">
          <mxGeometry relative="1" as="geometry">
            <mxPoint x="540" y="615" as="sourcePoint" />
            <mxPoint x="494" y="660" as="targetPoint" />
          </mxGeometry>
        </mxCell>
        <mxCell id="SDsMFg4hznAwerNVc13E-143" value="have" style="rhombus;whiteSpace=wrap;html=1;" vertex="1" parent="1">
          <mxGeometry x="760" y="627.5" width="80" height="75" as="geometry" />
        </mxCell>
        <mxCell id="SDsMFg4hznAwerNVc13E-144" value="have" style="rhombus;whiteSpace=wrap;html=1;" vertex="1" parent="1">
          <mxGeometry x="970" y="625" width="80" height="80" as="geometry" />
        </mxCell>
        <mxCell id="SDsMFg4hznAwerNVc13E-145" value="" style="endArrow=none;html=1;rounded=0;" edge="1" parent="1" source="SDsMFg4hznAwerNVc13E-144" target="wX4P6Ir2SmbjYn-z66RY-2">
          <mxGeometry relative="1" as="geometry">
            <mxPoint x="1160" y="666" as="sourcePoint" />
            <mxPoint x="1058" y="614" as="targetPoint" />
          </mxGeometry>
        </mxCell>
        <mxCell id="SDsMFg4hznAwerNVc13E-146" value="" style="endArrow=none;html=1;rounded=0;" edge="1" parent="1" source="wX4P6Ir2SmbjYn-z66RY-10" target="SDsMFg4hznAwerNVc13E-144">
          <mxGeometry relative="1" as="geometry">
            <mxPoint x="993" y="618" as="sourcePoint" />
            <mxPoint x="1102" y="540" as="targetPoint" />
          </mxGeometry>
        </mxCell>
        <mxCell id="SDsMFg4hznAwerNVc13E-147" value="" style="endArrow=none;html=1;rounded=0;" edge="1" parent="1" source="wX4P6Ir2SmbjYn-z66RY-16" target="SDsMFg4hznAwerNVc13E-143">
          <mxGeometry relative="1" as="geometry">
            <mxPoint x="911" y="740" as="sourcePoint" />
            <mxPoint x="956" y="661" as="targetPoint" />
          </mxGeometry>
        </mxCell>
        <mxCell id="SDsMFg4hznAwerNVc13E-148" value="" style="endArrow=none;html=1;rounded=0;" edge="1" parent="1" source="SDsMFg4hznAwerNVc13E-143" target="wX4P6Ir2SmbjYn-z66RY-2">
          <mxGeometry relative="1" as="geometry">
            <mxPoint x="670" y="680" as="sourcePoint" />
            <mxPoint x="735" y="615" as="targetPoint" />
          </mxGeometry>
        </mxCell>
        <mxCell id="SDsMFg4hznAwerNVc13E-149" value="owns" style="rhombus;whiteSpace=wrap;html=1;" vertex="1" parent="1">
          <mxGeometry x="747" y="500" width="80" height="80" as="geometry" />
        </mxCell>
        <mxCell id="SDsMFg4hznAwerNVc13E-150" value="" style="endArrow=none;html=1;rounded=0;" edge="1" parent="1" source="wX4P6Ir2SmbjYn-z66RY-2" target="SDsMFg4hznAwerNVc13E-149">
          <mxGeometry relative="1" as="geometry">
            <mxPoint x="573" y="480" as="sourcePoint" />
            <mxPoint x="562" y="575" as="targetPoint" />
          </mxGeometry>
        </mxCell>
        <mxCell id="SDsMFg4hznAwerNVc13E-151" value="" style="endArrow=none;html=1;rounded=0;" edge="1" parent="1" source="SDsMFg4hznAwerNVc13E-149" target="SDsMFg4hznAwerNVc13E-105">
          <mxGeometry relative="1" as="geometry">
            <mxPoint x="1080" y="525" as="sourcePoint" />
            <mxPoint x="834" y="547" as="targetPoint" />
          </mxGeometry>
        </mxCell>
        <mxCell id="SDsMFg4hznAwerNVc13E-152" value="N:M" style="text;html=1;align=center;verticalAlign=middle;whiteSpace=wrap;rounded=0;" vertex="1" parent="1">
          <mxGeometry x="820" y="455" width="60" height="30" as="geometry" />
        </mxCell>
        <mxCell id="SDsMFg4hznAwerNVc13E-153" value="1:N" style="text;html=1;align=center;verticalAlign=middle;whiteSpace=wrap;rounded=0;" vertex="1" parent="1">
          <mxGeometry x="757" y="470" width="60" height="30" as="geometry" />
        </mxCell>
        <mxCell id="SDsMFg4hznAwerNVc13E-154" value="1:N" style="text;html=1;align=center;verticalAlign=middle;whiteSpace=wrap;rounded=0;" vertex="1" parent="1">
          <mxGeometry x="770" y="595" width="60" height="30" as="geometry" />
        </mxCell>
        <mxCell id="SDsMFg4hznAwerNVc13E-155" value="N:M" style="text;html=1;align=center;verticalAlign=middle;whiteSpace=wrap;rounded=0;" vertex="1" parent="1">
          <mxGeometry x="980" y="595" width="60" height="30" as="geometry" />
        </mxCell>
        <mxCell id="SDsMFg4hznAwerNVc13E-156" value="N:M" style="text;html=1;align=center;verticalAlign=middle;whiteSpace=wrap;rounded=0;" vertex="1" parent="1">
          <mxGeometry x="1300" y="700" width="60" height="30" as="geometry" />
        </mxCell>
        <mxCell id="SDsMFg4hznAwerNVc13E-157" value="N:M" style="text;html=1;align=center;verticalAlign=middle;whiteSpace=wrap;rounded=0;" vertex="1" parent="1">
          <mxGeometry x="1210" y="510" width="60" height="30" as="geometry" />
        </mxCell>
        <mxCell id="SDsMFg4hznAwerNVc13E-158" value="1:N" style="text;html=1;align=center;verticalAlign=middle;whiteSpace=wrap;rounded=0;" vertex="1" parent="1">
          <mxGeometry x="450" y="610" width="60" height="30" as="geometry" />
        </mxCell>
        <mxCell id="SDsMFg4hznAwerNVc13E-159" value="N:M" style="text;html=1;align=center;verticalAlign=middle;whiteSpace=wrap;rounded=0;" vertex="1" parent="1">
          <mxGeometry x="354" y="550" width="60" height="30" as="geometry" />
        </mxCell>
        <mxCell id="SDsMFg4hznAwerNVc13E-160" value="owns" style="rhombus;whiteSpace=wrap;html=1;" vertex="1" parent="1">
          <mxGeometry x="285" y="685" width="80" height="80" as="geometry" />
        </mxCell>
        <mxCell id="SDsMFg4hznAwerNVc13E-161" value="" style="endArrow=none;html=1;rounded=0;" edge="1" parent="1" source="SDsMFg4hznAwerNVc13E-160" target="7WMYizGvkfpdb4PiuY7d-26">
          <mxGeometry relative="1" as="geometry">
            <mxPoint x="495" y="609" as="sourcePoint" />
            <mxPoint x="427" y="623" as="targetPoint" />
          </mxGeometry>
        </mxCell>
        <mxCell id="SDsMFg4hznAwerNVc13E-162" value="" style="endArrow=none;html=1;rounded=0;" edge="1" parent="1" source="wX4P6Ir2SmbjYn-z66RY-6" target="SDsMFg4hznAwerNVc13E-160">
          <mxGeometry relative="1" as="geometry">
            <mxPoint x="339" y="751" as="sourcePoint" />
            <mxPoint x="373" y="790" as="targetPoint" />
          </mxGeometry>
        </mxCell>
        <mxCell id="SDsMFg4hznAwerNVc13E-163" value="1:N" style="text;html=1;align=center;verticalAlign=middle;whiteSpace=wrap;rounded=0;" vertex="1" parent="1">
          <mxGeometry x="295" y="655" width="60" height="30" as="geometry" />
        </mxCell>
        <mxCell id="SDsMFg4hznAwerNVc13E-164" value="1:N" style="text;html=1;align=center;verticalAlign=middle;whiteSpace=wrap;rounded=0;" vertex="1" parent="1">
          <mxGeometry x="415" y="265" width="60" height="30" as="geometry" />
        </mxCell>
      </root>
    </mxGraphModel>
  </diagram>
</mxfile>
